<?xml version="1.0" encoding="us-ascii" standalone="no"?><svg xmlns="http://www.w3.org/2000/svg" xmlns:xlink="http://www.w3.org/1999/xlink" contentStyleType="text/css" height="276px" preserveAspectRatio="none" style="width:194px;height:276px;background:#FFFFFF;" version="1.1" viewBox="0 0 194 276" width="194px" zoomAndPan="magnify"><defs/><g><!--entity FhirFacade--><g id="elem_FhirFacade"><rect fill="#808080" height="47.6094" rx="2.5" ry="2.5" style="stroke:#181818;stroke-width:0.5;" width="113" x="41" y="115"/><rect fill="#808080" height="10" style="stroke:#181818;stroke-width:0.5;" width="15" x="134" y="120"/><rect fill="#808080" height="2" style="stroke:#181818;stroke-width:0.5;" width="4" x="132" y="122"/><rect fill="#808080" height="2" style="stroke:#181818;stroke-width:0.5;" width="4" x="132" y="126"/><text fill="#000000" font-family="sans-serif" font-size="14" lengthAdjust="spacing" textLength="73" x="56" y="149.5332">FhirFacade</text></g><!--entity App1--><g id="elem_App1"><rect fill="#F1F1F1" height="47.6094" rx="2.5" ry="2.5" style="stroke:#181818;stroke-width:0.5;" width="73" x="7" y="7"/><rect fill="#F1F1F1" height="10" style="stroke:#181818;stroke-width:0.5;" width="15" x="60" y="12"/><rect fill="#F1F1F1" height="2" style="stroke:#181818;stroke-width:0.5;" width="4" x="58" y="14"/><rect fill="#F1F1F1" height="2" style="stroke:#181818;stroke-width:0.5;" width="4" x="58" y="18"/><text fill="#000000" font-family="sans-serif" font-size="14" lengthAdjust="spacing" textLength="33" x="22" y="41.5332">App1</text></g><!--entity App2--><g id="elem_App2"><rect fill="#F1F1F1" height="47.6094" rx="2.5" ry="2.5" style="stroke:#181818;stroke-width:0.5;" width="73" x="115" y="7"/><rect fill="#F1F1F1" height="10" style="stroke:#181818;stroke-width:0.5;" width="15" x="168" y="12"/><rect fill="#F1F1F1" height="2" style="stroke:#181818;stroke-width:0.5;" width="4" x="166" y="14"/><rect fill="#F1F1F1" height="2" style="stroke:#181818;stroke-width:0.5;" width="4" x="166" y="18"/><text fill="#000000" font-family="sans-serif" font-size="14" lengthAdjust="spacing" textLength="33" x="130" y="41.5332">App2</text></g><!--entity PropietarySystem--><g id="elem_PropietarySystem"><rect fill="#F1F1F1" height="47.6094" rx="2.5" ry="2.5" style="stroke:#181818;stroke-width:0.5;" width="151" x="22" y="223"/><rect fill="#F1F1F1" height="10" style="stroke:#181818;stroke-width:0.5;" width="15" x="153" y="228"/><rect fill="#F1F1F1" height="2" style="stroke:#181818;stroke-width:0.5;" width="4" x="151" y="230"/><rect fill="#F1F1F1" height="2" style="stroke:#181818;stroke-width:0.5;" width="4" x="151" y="234"/><text fill="#000000" font-family="sans-serif" font-size="14" lengthAdjust="spacing" textLength="111" x="37" y="257.5332">PropietarySystem</text></g><!--link App1 to FhirFacade--><g id="link_App1_FhirFacade"><path d="M55.22,55 C64.21,72.66 73.8558,91.5941 82.8958,109.3341 " fill="none" id="App1-to-FhirFacade" style="stroke:#181818;stroke-width:1.0;"/><polygon fill="#181818" points="85.62,114.68,85.0977,104.845,83.3498,110.2251,77.9698,108.4773,85.62,114.68" style="stroke:#181818;stroke-width:1.0;"/></g><!--link App2 to FhirFacade--><g id="link_App2_FhirFacade"><path d="M139.78,55 C130.79,72.66 121.1442,91.5941 112.1042,109.3341 " fill="none" id="App2-to-FhirFacade" style="stroke:#181818;stroke-width:1.0;"/><polygon fill="#181818" points="109.38,114.68,117.0302,108.4773,111.6502,110.2251,109.9023,104.845,109.38,114.68" style="stroke:#181818;stroke-width:1.0;"/></g><!--link FhirFacade to PropietarySystem--><g id="link_FhirFacade_PropietarySystem"><path d="M97.5,163 C97.5,180.66 97.5,198.94 97.5,216.68 " fill="none" id="FhirFacade-to-PropietarySystem" style="stroke:#181818;stroke-width:1.0;"/><polygon fill="#181818" points="97.5,222.68,101.5,213.68,97.5,217.68,93.5,213.68,97.5,222.68" style="stroke:#181818;stroke-width:1.0;"/></g><!--SRC=[IyxFBSZFIyqhKN3Bo2noIqnEJ4bLK4ulIgtauefsB2WmZ5NGrRLJY4R8neB5ZR298t4WiW55-GMPgIM9HPN1bSKbgRcnN000]--></g></svg>